<?xml version="1.0" encoding="utf-8"?>
<!-- Generator: Adobe Illustrator 22.0.0, SVG Export Plug-In . SVG Version: 6.00 Build 0)  -->
<svg version="1.1" id="Layer_1" xmlns="http://www.w3.org/2000/svg" xmlns:xlink="http://www.w3.org/1999/xlink" x="0px" y="0px"
	 viewBox="0 0 512 497" style="enable-background:new 0 0 512 497;" xml:space="preserve">
<g>
	<g>
		<g>
			<path d="M169.9,315.4c-18.5,0-33.5-15-33.5-33.5s15-33.5,33.5-33.5s33.5,15,33.5,33.5S188.4,315.4,169.9,315.4z M169.9,266.9
				c-8.3,0-15,6.7-15,15s6.7,15,15,15s15-6.7,15-15S178.2,266.9,169.9,266.9z"/>
		</g>
		<g>
			<path d="M168,381.1c-5.7,0-11.4-0.5-17.1-1.5c-23.5-4.2-45.1-17-60.6-36.1C74.7,324.2,66,299.7,66,274.3v-97.5
				c0-5.1,4.1-9.3,9.3-9.3h185.3c5.1,0,9.3,4.1,9.3,9.3v97.5c0,48.7-31.4,91.2-76.3,103.4C185.2,380,176.6,381.1,168,381.1z
				 M84.6,186.1v88.2c0,43.3,29.3,79.9,69.6,87c11.5,2,23.4,1.5,34.6-1.5c36.9-10,62.7-45.1,62.7-85.5v-88.2H84.6z"/>
		</g>
		<g>
			<path d="M140.2,153.8h-37.1c-5.1,0-9.3-4.1-9.3-9.3V66c0-15.3,12.5-27.8,27.8-27.8s27.8,12.5,27.8,27.8v78.5
				C149.4,149.6,145.3,153.8,140.2,153.8z M112.4,135.2h18.5V66c0-5.1-4.2-9.3-9.3-9.3c-5.1,0-9.3,4.2-9.3,9.3
				C112.4,66,112.4,135.2,112.4,135.2z"/>
		</g>
		<g>
			<path d="M232.8,153.8h-37.1c-5.1,0-9.3-4.1-9.3-9.3V66c0-15.3,12.5-27.8,27.8-27.8s27.8,12.5,27.8,27.8v78.5
				C242.1,149.6,238,153.8,232.8,153.8z M205,135.2h18.5V66c0-5.1-4.2-9.3-9.3-9.3c-5.1,0-9.3,4.2-9.3,9.3V135.2z"/>
		</g>
		<g>
			<path d="M279.2,186.1H56.8c-5.1,0-9.3-4.1-9.3-9.3v-32.3c0-5.1,4.1-9.3,9.3-9.3h222.4c5.1,0,9.3,4.1,9.3,9.3v32.3
				C288.4,182,284.3,186.1,279.2,186.1z M66,167.6h203.9v-13.8H66V167.6z"/>
		</g>
		<g>
			<path d="M194.2,218.4H75.3c-5.1,0-9.3-4.1-9.3-9.3s4.1-9.3,9.3-9.3h118.9c5.1,0,9.3,4.1,9.3,9.3S199.3,218.4,194.2,218.4z"/>
		</g>
		<g>
			<path d="M260.6,218.4h-34.1c-5.1,0-9.3-4.1-9.3-9.3s4.1-9.3,9.3-9.3h34.1c5.1,0,9.3,4.1,9.3,9.3S265.8,218.4,260.6,218.4z"/>
		</g>
		<g>
			<path d="M390.4,473.8H75.3c-20.4,0-37.1-16.6-37.1-37.1s16.6-37.1,37.1-37.1h64.9c10.2,0,18.5-8.3,18.5-18.5v-9.3
				c0-5.1,4.1-9.3,9.3-9.3s9.3,4.1,9.3,9.3v9.3c0,20.4-16.6,37.1-37.1,37.1H75.3c-10.2,0-18.5,8.3-18.5,18.5
				c0,10.2,8.3,18.5,18.5,18.5h315.1c10.2,0,18.5-8.3,18.5-18.5c0-10.2-8.3-18.5-18.5-18.5H344c-20.4,0-37.1-16.6-37.1-37.1
				S323.6,344,344,344h120.5c5.1,0,9.3,4.1,9.3,9.3c0,5.1-4.1,9.3-9.3,9.3H344c-10.2,0-18.5,8.3-18.5,18.5
				c0,10.2,8.3,18.5,18.5,18.5h46.3c20.4,0,37.1,16.6,37.1,37.1S410.8,473.8,390.4,473.8z"/>
		</g>
	</g>
</g>
</svg>
