<?xml version="1.0" encoding="utf-8"?>
<!-- Generator: Adobe Illustrator 22.0.0, SVG Export Plug-In . SVG Version: 6.00 Build 0)  -->
<svg version="1.1" id="Layer_1" xmlns="http://www.w3.org/2000/svg" xmlns:xlink="http://www.w3.org/1999/xlink" x="0px" y="0px"
	 viewBox="0 0 64 66.8" style="enable-background:new 0 0 64 66.8;" xml:space="preserve">
<g>
	<rect x="31" y="23" width="2" height="16"/>
	<rect x="31" y="41" width="2" height="4"/>
	<path d="M23,45c0-2,0.9-3.5,2-5.2c1.4-2.2,3-4.7,3-8.8c0-4-1-9.9-1-10.2l-2,0.3c0,0.1,1,6,1,9.8c0,3.5-1.4,5.6-2.7,7.7
		C22.2,40.5,21,42.4,21,45c0,5.6,8.2,9.7,8.6,9.9l0.9-1.8C28.4,52.1,23,48.6,23,45z"/>
	<path d="M38,31c0-3.9,1-9.8,1-9.8l-2-0.3c0,0.2-1,6.1-1,10.2c0,4.1,1.6,6.6,3,8.8c1.1,1.7,2,3.2,2,5.2c0,3.6-5.4,7.1-7.4,8.1
		l0.9,1.8c0.3-0.2,8.6-4.3,8.6-9.9c0-2.6-1.2-4.5-2.3-6.3C39.4,36.6,38,34.5,38,31z"/>
	<path d="M56.3,21.6c-0.6-0.7-1.1-1.4-1.5-2.1C53,15.8,53,11.8,53,4V3h-4V1H35v2h-6V1H15v2h-4v1c0,7.8,0,11.8-1.9,15.6
		c-0.4,0.7-0.9,1.4-1.5,2.1C6.4,23.2,5,25,5,28c0,5.2,4.4,7,7.5,8.4c1.6,0.7,3.1,1.3,3.6,2.2c0.5,0.8-0.1,2.2-0.9,3.7
		c-1.2,2.5-2.8,6-0.1,9.3c1.9,2.4,4.2,3.3,6.7,4.3c3,1.2,6.1,2.4,9.3,6.7l0.8,1.1l0.8-1.1c3.2-4.3,6.3-5.5,9.3-6.7
		c2.4-1,4.7-1.9,6.7-4.3c2.7-3.4,1.1-6.8-0.1-9.3c-0.7-1.6-1.4-2.9-0.9-3.7c0.5-0.8,2-1.5,3.6-2.2C54.6,35,59,33.2,59,28
		C59,25,57.6,23.2,56.3,21.6z M37,3h10v2H37V3z M17,3h10v2H17V3z M15,5v1v1v2h2V7h2v2h2V7h2v2h2V7h2v2h2V7V6V5h6v1v1v2h2V7h2v2h2V7
		h2v2h2V7h2v2h2V7V6V5h2c-0.6,9.9-10,12-18,12h-2c-4.1,0-17.2-0.9-18-12H15z M50.7,34.6c-1.9,0.8-3.6,1.6-4.5,2.9
		c-1.2,1.7-0.2,3.8,0.7,5.7c1.2,2.5,2.3,4.8,0.3,7.2c-1.6,2-3.6,2.8-5.8,3.7c-2.9,1.1-6.1,2.4-9.4,6.3c-3.3-3.9-6.5-5.2-9.4-6.3
		c-2.3-0.9-4.2-1.7-5.8-3.7c-1.9-2.4-0.8-4.7,0.3-7.2c0.9-2,1.9-4,0.7-5.7c-0.9-1.3-2.6-2.1-4.5-2.9C10.2,33.2,7,31.9,7,28
		c0-2.3,1.1-3.7,2.2-5.1c0.6-0.8,1.2-1.5,1.7-2.4c1.4-2.8,1.9-5.5,2-9.3c1.2,2,2.9,3.6,5.1,4.9c0,5.8,0,9.7-2.9,14.5l1.7,1
		c3-4.9,3.1-9.1,3.1-14.5c3,1.3,6.7,2,11,2h2c4.3,0,8-0.6,11-1.8c0,5.4,0.2,9.4,3.1,14.3l1.7-1C46,25.8,46,22,46,16.3
		c2.2-1.2,3.9-2.8,5.1-4.8c0.2,3.6,0.7,6.3,2,8.9c0.5,0.9,1.1,1.7,1.7,2.4c1.1,1.4,2.2,2.8,2.2,5.1C57,31.9,53.8,33.2,50.7,34.6z"/>
</g>
</svg>
