<?xml version="1.0" encoding="utf-8"?>
<!-- Generator: Adobe Illustrator 22.0.0, SVG Export Plug-In . SVG Version: 6.00 Build 0)  -->
<svg version="1.1" id="Layer_1" xmlns="http://www.w3.org/2000/svg" xmlns:xlink="http://www.w3.org/1999/xlink" x="0px" y="0px"
	 viewBox="0 0 64 66.3" style="enable-background:new 0 0 64 66.3;" xml:space="preserve">
<g>
	<path d="M24,39v-1h-1c-3,0-7,0-7,6v4h1c5.2,0,6.8-1.1,8-5.8l-1.7-0.4C24,40.3,24,39.1,24,39z M18,46v-2c0-3.5,1.5-3.9,3.8-4
		c-0.3,0.9-0.9,2.2-2.4,3.2l1.1,1.7c1-0.7,1.8-1.5,2.3-2.3C22.1,45.2,21.3,45.9,18,46z"/>
	<path d="M20,30c-4.4,0-8,3.6-8,8v9c0,4.4,3.6,8,8,8s8-3.6,8-8v-9C28,33.6,24.4,30,20,30z M26,47c0,3.3-2.7,6-6,6s-6-2.7-6-6v-9
		c0-3.3,2.7-6,6-6s6,2.7,6,6V47z"/>
	<path d="M27.8,12.5c0.9,0.3,2,0.5,3.2,0.5c3.4,0,5.6-2.2,5.7-2.3L38.4,9H36c-1.9,0-3.2-1.6-4.6-3.4C29.6,3.5,27.6,1,24,1
		c-3.3,0-8.9,1.4-9,10.8c-0.6,0.6-1,1.3-1,2.2c0,0.8,0.3,1.5,0.8,2c-0.5,0.5-0.8,1.2-0.8,2c0,0.4,0.1,0.7,0.2,1
		C10.7,19.4,8,22.4,8,26v11c0,5.2-1.5,17.3-1.9,20.2C5.4,57.6,5,58.2,5,59v2c0,1.1,0.9,2,2,2h26c1.1,0,2-0.9,2-2v-2
		c0-0.8-0.4-1.4-1.1-1.8C33.5,54.3,32,42.2,32,37V26c0-3.6-2.7-6.6-6.2-7c0.1-0.3,0.2-0.7,0.2-1c0-0.8-0.3-1.5-0.8-2
		c0.5-0.5,0.8-1.2,0.8-2c0-0.7-0.2-1.3-0.6-1.8C26,12,26.7,12.2,27.8,12.5z M24,3c2.7,0,4.2,1.9,5.8,3.9c0.9,1.1,1.8,2.2,2.9,3
		c-2-0.2-3.1-1.1-4.2-2C27.4,7,26.2,6,24,6c-3.9,0-5.6,2.5-5.9,5h-1C17.3,5.6,19.6,3,24,3z M24,14c0,0.6-0.4,1-1,1h-6
		c-0.6,0-1-0.4-1-1s0.4-1,1-1h6C23.6,13,24,13.4,24,14z M24,18c0,0.6-0.4,1-1,1h-6c-0.6,0-1-0.4-1-1s0.4-1,1-1h6
		C23.6,17,24,17.4,24,18z M31.9,57H8.1C8.6,53.4,10,42.1,10,37v-9h20v9C30,42.1,31.4,53.4,31.9,57z M33,61H7v-2h26V61z M30,26H10
		c0-2.8,2.2-5,5-5h10C27.8,21,30,23.2,30,26z M23.6,11.1C23.4,11,23.2,11,23,11h-2.9c0.2-1.3,1.1-3,3.9-3c1.5,0,2.3,0.6,3.3,1.5
		c0.5,0.4,1,0.8,1.6,1.2c-0.2-0.1-0.4-0.1-0.6-0.2C26.9,10.1,25.2,9.7,23.6,11.1z"/>
	<path d="M56.7,55.4c0.7-0.8,1.3-1.9,1.3-3.4c0-4.5-5.3-7.7-5.5-7.9l-1.1-0.6l-0.4,1.2c0,0-0.9,2.5-3.4,3.4
		c-0.7,0.2-1.4,0.4-2.2,0.6C43.1,49.2,40,49.9,40,53c0,0.8,0.2,1.5,0.5,2c-2,0.2-3.5,1.9-3.5,4c0,2.2,1.8,4,4,4h14c2.2,0,4-1.8,4-4
		C59,57.4,58,56,56.7,55.4z M55,61H41c-1.1,0-2-0.9-2-2s0.9-2,2-2h3v-2c-0.3,0-2-0.1-2-2c0-1.3,1.3-1.8,4-2.4
		c0.8-0.2,1.6-0.4,2.3-0.6c2.2-0.7,3.4-2.3,4.1-3.5c1.3,1,3.6,3.1,3.6,5.5c0,1.9-1.7,2.8-2.2,3H48v2h7c1.1,0,2,0.9,2,2
		S56.1,61,55,61z"/>
	<path d="M55,53c0-0.2,0-2.5-1.3-3.7l-1.4,1.4c0.6,0.6,0.7,1.9,0.7,2.3H55z"/>
</g>
</svg>
