<?xml version="1.0" encoding="utf-8"?>
<!-- Generator: Adobe Illustrator 22.0.0, SVG Export Plug-In . SVG Version: 6.00 Build 0)  -->
<svg version="1.1" id="Layer_1" xmlns="http://www.w3.org/2000/svg" xmlns:xlink="http://www.w3.org/1999/xlink" x="0px" y="0px"
	 viewBox="0 0 100 101.9" style="enable-background:new 0 0 100 101.9;" xml:space="preserve">
<polygon points="52,40 52,40 52,40 "/>
<path d="M82.7,50.6l10.8-14.4c0.8-1.1,1.2-2.4,1.2-3.7c0-1.6-0.6-3.1-1.7-4.3l0,0l0,0l0,0c-1.1-1.1-2.6-1.7-4.1-1.7
	c-1.3,0-2.7,0.4-3.8,1.4l0,0L75.6,36c-0.8,0.7-1.6,1.3-2.3,1.7c-0.4,0.2-0.7,0.4-0.9,0.5c-0.1,0-0.2,0.1-0.3,0.1l0,0
	c-0.8,0-6,0-6.8,0c0,0-0.2-0.1-0.4-0.2c-0.7-0.4-1.9-1.3-2.8-2.2l-8.1-8.3c-1.1-1.1-2.5-1.6-3.9-1.6c-1.4,0-2.8,0.5-3.9,1.6
	l-8.2,8.4c-0.7,0.7-1.5,1.4-2.2,1.8c-0.3,0.2-0.6,0.4-0.8,0.5c-0.1,0-0.2,0.1-0.2,0.1c-0.8,0-6.2,0-7,0c-0.1,0-0.2-0.1-0.4-0.2
	c-0.7-0.4-1.9-1.2-3-2.1l-9.3-8.2c-1.1-0.9-2.4-1.4-3.7-1.4c-1.5,0-3,0.6-4.1,1.7l0,0c-1.1,1.2-1.7,2.8-1.7,4.4
	c0,1.3,0.4,2.6,1.2,3.7l9.7,13.3c0.6,0.8,1.1,1.7,1.5,2.5c0.2,0.4,0.3,0.7,0.4,1c0,0.1,0.1,0.2,0.1,0.3l0,0.1c0,0.9,0.1,3.3,0.1,5.5
	l0.8,24c0,1.4,0.6,2.8,1.4,3.8c0.9,1,2.1,1.7,3.5,1.7c1.8,0,12.7,0,14.4,0c1.4,0,2.6-0.7,3.5-1.7c0.8-1,1.3-2.3,1.4-3.7l0.8-24.1
	c0.1-2.2,0.1-4.7,0.1-5.5l0,0c0,0,0-0.3,0.1-0.6c0.3-0.9,0.9-2.4,1.6-3.8l1.2-2.3c0.5-0.9,1.1-1.9,1.6-2.7c0.3-0.4,0.5-0.8,0.7-1.1
	c0.2-0.2,0.3-0.4,0.4-0.5c0.1,0.1,0.1,0.2,0.2,0.3c0.6,0.8,1.5,2.3,2.3,3.7l2.1,3.6c0.4,0.7,0.7,1.5,1,2.1c0.2,0.7,0.3,1.3,0.3,1.6
	l0,0.1c-0.2,0.5-0.5,1.3-0.8,2.3c-0.3,1-0.7,2.1-1,3.2l-2.5,8.3c-0.2,0.8-0.4,1.5-0.6,2.2c-0.1,0.7-0.2,1.2-0.2,1.7
	c0,0.2,0,0.4,0.1,0.8c0.1,0.2,0.1,0.4,0.4,0.7c0.1,0.1,0.3,0.3,0.5,0.3c0.2,0.1,0.4,0.1,0.6,0.1c0.3,0,1.6,0,2.9,0
	c0.9,0,1.9,0,2.6,0c0.1,0.5,0.3,1.5,0.3,2.5v7c0,1.4,0.3,2.6,1,3.6c0.3,0.5,0.7,1,1.2,1.3c0.5,0.3,1.1,0.6,1.8,0.6
	c1.4,0,10.6,0,12.2,0c0.7,0,1.3-0.2,1.9-0.5c0.8-0.5,1.4-1.2,1.9-2.1c0.4-0.9,0.7-1.8,0.7-2.9v-7c0-1,0.1-1.9,0.2-2.5c0,0,0,0,0,0
	c0.7,0,1.6,0,2.4,0c1.3,0,2.5,0,2.8,0c0.2,0,0.4,0,0.6-0.1c0.4-0.2,0.6-0.4,0.7-0.6c0.2-0.3,0.2-0.5,0.2-0.7c0-0.2,0-0.3,0-0.4
	c0-0.5-0.1-1-0.2-1.7c-0.1-0.6-0.3-1.4-0.6-2.2l-3.4-11.2c-0.1-0.4-0.2-0.9-0.2-1.5c0-0.7,0.1-1.6,0.3-2.3
	C82,51.7,82.3,51,82.7,50.6z M55.8,53.7L55.8,53.7L55.8,53.7C55.8,53.7,55.8,53.7,55.8,53.7z M57.7,72.8L57.7,72.8L57.7,72.8
	L57.7,72.8z M80.3,48.8c-0.6,0.8-1,1.8-1.3,2.8c-0.3,1-0.5,2.1-0.5,3.2c0,0.8,0.1,1.6,0.3,2.4l3.4,11.2c0.2,0.7,0.4,1.4,0.5,1.9
	c-0.4,0-0.8,0-1.3,0c-1.3,0-2.7,0-3.2,0c-0.5,0-0.9,0.2-1.2,0.5c-0.2,0.2-0.3,0.4-0.5,0.6c-0.2,0.3-0.3,0.6-0.4,0.9
	c-0.3,1-0.4,2.2-0.4,3.6v7c0,0.8-0.2,1.5-0.6,1.9c-0.2,0.2-0.3,0.4-0.5,0.4c-0.1,0.1-0.3,0.1-0.4,0.1c-1.1,0-2.9,0-4.5,0v-13
	c0-0.8-0.7-1.5-1.5-1.5c-0.8,0-1.5,0.7-1.5,1.5v13c-1.7,0-3.5,0-4.6,0c0,0,0,0-0.1-0.1c-0.1-0.1-0.4-0.4-0.6-0.8
	c-0.2-0.4-0.3-1-0.3-1.6v-7c0-1.2-0.1-2.3-0.3-3.2c-0.1-0.4-0.2-0.8-0.5-1.3c-0.1-0.2-0.3-0.4-0.5-0.6c-0.2-0.2-0.7-0.4-1.2-0.4
	c-0.5,0-2.1,0-3.3,0c-0.5,0-0.9,0-1.4,0c0.1-0.5,0.3-1.2,0.5-1.9l2.5-8.3c0.3-1,0.7-2.2,1-3.1c0.3-1,0.6-1.8,0.7-2.2l0,0
	c0.1-0.4,0.2-0.8,0.2-1.1c0-0.8-0.2-1.6-0.5-2.5c-0.3-0.9-0.7-1.8-1.2-2.7l-2.1-3.6c-0.6-1-1.2-2-1.7-2.8c-0.3-0.4-0.5-0.8-0.8-1.1
	S52.2,40.3,52,40c-0.5-0.6-1.3-0.9-2-0.9c-0.8,0-1.6,0.4-2.2,1c-0.2,0.3-0.4,0.5-0.7,0.9c-0.7,1-1.7,2.6-2.5,4.1l-1.2,2.3
	c-0.6,1-1.1,2.1-1.4,3.1c-0.2,0.5-0.3,1-0.5,1.4c-0.1,0.4-0.2,0.8-0.2,1.2c0,0.8-0.1,3.3-0.1,5.5l-0.8,24.1c0,0.8-0.3,1.5-0.7,1.9
	c-0.4,0.5-0.8,0.6-1.2,0.6c-1.4,0-3.8,0-5.8,0v-13c0-0.8-0.7-1.5-1.5-1.5c-0.8,0-1.5,0.7-1.5,1.5v13c-2,0-4.3,0-5.7,0
	c-0.4,0-0.8-0.2-1.2-0.7c-0.4-0.4-0.7-1.1-0.7-1.9l-0.8-24c-0.1-2.2-0.1-4.6-0.1-5.4c0-0.3,0-0.5-0.1-0.7c-0.2-0.7-0.5-1.5-0.9-2.3
	c-0.4-0.8-1-1.7-1.6-2.6L9,34.5c-0.4-0.5-0.6-1.2-0.6-1.9c0-0.9,0.3-1.8,0.9-2.3l0,0c0.5-0.5,1.2-0.8,1.9-0.8c0.6,0,1.3,0.2,1.8,0.6
	l9.3,8.2c0.9,0.8,1.8,1.5,2.7,2c0.4,0.3,0.8,0.5,1.2,0.7c0.2,0.1,0.4,0.2,0.6,0.2c0.2,0.1,0.4,0.1,0.7,0.1c0.7,0,6.3,0,7.1,0
	c0.3,0,0.5-0.1,0.8-0.1c0.4-0.1,0.7-0.3,1.1-0.5c1.1-0.6,2.3-1.6,3.4-2.7l8.2-8.4c0.5-0.5,1.1-0.7,1.7-0.7c0.6,0,1.2,0.2,1.7,0.7
	l8.1,8.3c0.8,0.9,1.8,1.6,2.7,2.2c0.4,0.3,0.9,0.5,1.3,0.7c0.2,0.1,0.4,0.2,0.7,0.2c0.2,0.1,0.5,0.1,0.8,0.1c0.8,0,6.2,0,6.9,0
	c0.3,0,0.5,0,0.7-0.1c0.7-0.2,1.5-0.6,2.3-1.1c0.8-0.5,1.7-1.1,2.4-1.8l9.4-8.1l0,0c0.5-0.4,1.1-0.6,1.8-0.6c0.7,0,1.5,0.3,2,0.8
	l0,0c0.5,0.5,0.9,1.4,0.9,2.2c0,0.7-0.2,1.4-0.6,1.9L80.3,48.8z"/>
<path d="M31.3,34.8c6.4,0,11.5-5.1,11.5-11.5s-5.1-11.5-11.5-11.5s-11.5,5.1-11.5,11.5S24.9,34.8,31.3,34.8z M31.3,14.8
	c4.7,0,8.5,3.8,8.5,8.5s-3.8,8.5-8.5,8.5s-8.5-3.8-8.5-8.5S26.6,14.8,31.3,14.8z"/>
<circle cx="31.2" cy="50.9" r="1.5"/>
<circle cx="31.2" cy="57.9" r="1.5"/>
<circle cx="68.2" cy="50.9" r="1.5"/>
<circle cx="68.2" cy="57.9" r="1.5"/>
<path d="M47.7,21.6c0,0,2.4,1.4,5.5,1.4c1,0,2-0.1,3.1-0.5c0.2-0.1,0.3-0.1,0.5-0.2c0,0.3,0,0.6,0,0.9c0,6.4,5.1,11.5,11.5,11.5
	s11.5-5.1,11.5-11.5c0-0.3,0-0.7-0.1-1c0.2,0.1,0.4,0.2,0.6,0.3c1,0.4,2.1,0.5,3.1,0.5c3.1,0,5.5-1.4,5.5-1.4
	c0.5-0.3,0.7-0.9,0.5-1.4c0,0-1.7-4.6-6.1-6.1c-1-0.4-2.1-0.5-3.1-0.5c-1.9,0-3.6,0.5-4.6,1c-2-1.7-4.6-2.8-7.5-2.8
	c-2.8,0-5.4,1-7.4,2.7c-1-0.4-2.6-0.9-4.5-0.9c-1,0-2,0.1-3.1,0.5c-4.4,1.6-6.1,6.1-6.1,6.1C47,20.7,47.2,21.3,47.7,21.6z
	 M80.2,16.5c0.7,0,1.4,0.1,2.1,0.3c1.6,0.6,2.7,1.8,3.4,2.8C85,19.9,84.2,20,83.3,20c-0.7,0-1.4-0.1-2.1-0.3
	c-1.6-0.6-2.7-1.8-3.4-2.8C78.5,16.7,79.3,16.5,80.2,16.5z M68.2,14.8c4.7,0,8.5,3.8,8.5,8.5s-3.8,8.5-8.5,8.5s-8.5-3.8-8.5-8.5
	S63.5,14.8,68.2,14.8z M54.3,16.9c0.6-0.2,1.3-0.3,2.1-0.3c0.9,0,1.7,0.2,2.3,0.3c-0.1,0.2-0.2,0.3-0.3,0.5c-0.7,0.9-1.7,1.8-3,2.3
	c-0.6,0.2-1.3,0.3-2.1,0.3c-0.9,0-1.7-0.2-2.4-0.4C51.5,18.7,52.7,17.5,54.3,16.9z"/>
</svg>
