<?xml version="1.0" encoding="utf-8"?>
<!-- Generator: Adobe Illustrator 22.0.0, SVG Export Plug-In . SVG Version: 6.00 Build 0)  -->
<svg version="1.1" id="Layer_1" xmlns="http://www.w3.org/2000/svg" xmlns:xlink="http://www.w3.org/1999/xlink" x="0px" y="0px"
	 viewBox="0 0 512 513" style="enable-background:new 0 0 512 513;" xml:space="preserve">
<g>
	<path d="M488,272h-8v-56c0-4.4-3.6-8-8-8V48c0-17.7-14.3-32-32-32c-35.3,0-64,28.7-64,64v111h16V80c0-26.5,21.5-48,48-48
		c7.4,0,13.9,5.1,15.6,12.4c-1.6,7-7.4,15-16,21.8c-9.8,7.9-21.9,13-32.1,13.7l1.1,16c13.6-0.9,28.6-7.2,41-17.2
		c2.2-1.8,4.4-3.7,6.4-5.7v135h-80c-4.4,0-8,3.6-8,8v56h-8c-4.4,0-8,3.6-8,8v208c0,4.4,3.6,8,8,8h128c4.4,0,8-3.6,8-8V280
		C496,275.6,492.4,272,488,272z M384,224h80v48h-80V224z M480,480H368V288h112V480z"/>
	<rect x="384" y="312" width="16" height="16"/>
	<rect x="384" y="344" width="16" height="112"/>
	<path d="M176,112c-88.2,0-160,71.8-160,160c-0.1,32,9.5,63.2,27.5,89.7l13.2-9C40.6,328.9,31.9,300.8,32,272
		c0-79.4,64.6-144,144-144s144,64.6,144,144c0,39.3-16.1,76.8-44.4,104h-24.9c57.4-41.2,70.5-121.2,29.3-178.6
		s-121.2-70.5-178.6-29.3S30.8,289.3,72.1,346.7c8.1,11.3,18,21.2,29.3,29.3H60c-15.5,0-28,12.5-28,28c0,4.2,0.9,8.3,2.7,12H24
		c-4.4,0-8,3.6-8,8v40c0,17.7,14.3,32,32,32h256c17.7,0,32-14.3,32-32v-40c0-4.4-3.6-8-8-8h-10.7c6.6-14,0.7-30.7-13.3-37.3
		c-2.2-1-4.5-1.8-6.9-2.2c25-29.1,38.8-66.1,38.9-104.5C336,183.8,264.2,112,176,112z M84.1,336.1c-35.4-50.7-22.9-120.6,27.8-155.9
		s120.6-22.9,155.9,27.8s22.9,120.6-27.8,155.9c-7,4.9-14.5,8.9-22.5,12.1h-83.2C114.1,367.9,96.6,354,84.1,336.1z M320,464
		c0,8.8-7.2,16-16,16H48c-8.8,0-16-7.2-16-16v-32h81.8l6.5,25.9c0.9,3.6,4.1,6.1,7.8,6.1h96c3.7,0,6.9-2.5,7.8-6.1l6.5-25.9H320V464
		z M130.2,432h91.5l-4,16h-83.5L130.2,432z M304,404c0,6.6-5.4,12-12,12H60c-6.6,0-12-5.4-12-12s5.4-12,12-12h232
		C298.6,392,304,397.4,304,404z"/>
	<rect x="119.4" y="264" transform="matrix(0.7071 -0.7071 0.7071 0.7071 -140.7844 204.1176)" width="113.1" height="16"/>
	<rect x="110.1" y="248" transform="matrix(0.7071 -0.7071 0.7071 0.7071 -138.8428 176.8038)" width="67.9" height="16"/>
	<rect x="174.1" y="280" transform="matrix(0.7071 -0.7071 0.7071 0.7071 -142.7207 231.4183)" width="67.9" height="16"/>
</g>
</svg>
