<?xml version="1.0" encoding="utf-8"?>
<!-- Generator: Adobe Illustrator 22.0.0, SVG Export Plug-In . SVG Version: 6.00 Build 0)  -->
<svg version="1.1" id="Layer_1" xmlns="http://www.w3.org/2000/svg" xmlns:xlink="http://www.w3.org/1999/xlink" x="0px" y="0px"
	 viewBox="0 0 90 91.9" style="enable-background:new 0 0 90 91.9;" xml:space="preserve">
<title>Men</title>
<desc>Created with Sketch.</desc>
<g>
	<path d="M45,5c8.4,0,13.2,1.9,15.6,5.8l0.2,0.4c1.6,2.8,1.9,5.8,1.8,13.1l0,1.7l0,0.8l0,1.4l0,0.9l0,0.1l0,0.8c0,0.4,0,0.8-0.1,1.2
		l0,0.1c-0.2,2-0.6,4-1.3,5.9c-0.9,2.6-2.3,5.1-3.9,7.2c-0.4,0.5-0.8,0.9-1.2,1.4l0.3,3.8l0.1,0.7c0.1,1,0.2,1.9,0.3,2.4l0.1,0.3
		l2.4,1.5c5.4,1.2,9.8,3,12.9,5.4c3.2,2.5,5,5.5,5,9.1l0,10.8c0,1.4-0.5,2.8-1.5,3.7l-0.1,0.1h0c-0.9,0.9-2.2,1.4-3.5,1.4H18.2
		c-1.4,0-2.7-0.6-3.7-1.6l-0.2-0.2c-0.8-1-1.3-2.2-1.3-3.5V68.9c0-3.5,1.7-6.5,4.9-9c3.1-2.4,7.6-4.2,13-5.4l2.4-1.6l0-0.3
		c0.1-0.7,0.2-1.9,0.3-3.5l0.2-3.5c-0.4-0.4-0.7-0.8-1.1-1.3c-1.6-2.1-3-4.6-3.9-7.2c-0.9-2.6-1.4-5.2-1.4-7.7v-0.1
		c0-0.1,0-0.1,0-0.2l0-0.6l0-1.8l0-1l0-0.9l0-1.4c-0.1-6.7,0.3-9.5,1.8-12.2l0.2-0.4C31.8,6.9,36.6,5,45,5z M59.5,57.1
		c-1.8,6.7-3.3,10.3-6.9,16.9l-0.7,1.3L51,77l-1.8,3.3l0,0l-1.1,2h23.8c0.7,0,1.4-0.3,1.9-0.8c0.5-0.5,0.7-1.1,0.8-1.7l0-0.2V68.9
		c0-2.6-1.4-5-4-7C67.9,59.9,64.1,58.2,59.5,57.1z M30.8,58.3l-0.3-1.1c-4.6,1.1-8.4,2.7-11,4.7c-2.5,1.9-3.8,4.2-3.9,6.7l0,0.3
		v10.8c0,0.7,0.3,1.4,0.8,1.9c0.5,0.5,1,0.7,1.7,0.8l0.2,0h23.8L41,80.7l0-0.1L40,78.9l-0.5-0.9L38,75.2L37.4,74
		c-3.2-6-4.8-9.5-6.4-15.2L30.8,58.3z M45.4,69.6l-0.3-2.7l-0.3,2.1l-0.1,0.6l-1.3,10.2l1.4,2.6h0.3l1.6-2.9l0-0.4l-0.5-4L45.4,69.6
		z M48.7,80.2l0.4,0.3l0,0l0.1-0.1L48.7,80.2z M48.4,79.8L48.4,79.8L48.4,79.8l-0.1,0.1l0.4,0.2L48.4,79.8z M34,60
		c1.4,4.5,2.7,7.5,5.4,12.5l0.6,1.1l0.9,1.6l0,0l0.5,0.8l0.2-1.2l0.5-3.6l0.3-2l0.3-2.3c-0.4,0.3-1,0.3-1.4-0.1L41,66.8L34,60z
		 M56,60.1l-6.7,6.7c-0.4,0.4-1,0.5-1.4,0.3L47.7,67l0.1,0.8c0.1,1.1,0.3,2.1,0.4,3.2l0.1,1.1l0.5,3.6l1.4-2.6l0.8-1.6
		c2-3.8,3.2-6.5,4.3-9.7l0.3-0.9L56,60.1z M45.1,62.6l-0.7,1.3l0.4,1c0.1,0.2,0.2,0.3,0.2,0.6l0.1,0.2l0,0l0.1-0.2
		c0-0.1,0.1-0.3,0.2-0.4l0.1-0.1l0.4-1L45.1,62.6z M55.6,55.2l-8.8,5.1l1.5,2.7l0,0.1l0.3,0.6l8-7.9L55.6,55.2z M36.3,47.9l-0.1,1.1
		l-0.1,1.1C36.1,51,36,51.8,36,52.4l0,0.2L35.9,53l9.2,5.4l9.1-5.3l-0.1-0.4c-0.1-0.7-0.2-1.5-0.3-2.6l-0.1-0.7L53.7,48
		c-0.7,0.6-1.5,1.1-2.2,1.6c-2.1,1.3-4.3,1.9-6.5,1.9c-2.2,0-4.4-0.7-6.5-1.9C37.7,49.1,37,48.5,36.3,47.9z M55.7,17.9
		c-0.6,0-1.2,0.1-2.2,0.3l-0.3,0.1L51,18.9c-2.5,0.6-4.1,0.9-6,0.9c-1.8,0-3.3-0.2-5.6-0.8L39,18.9l-0.8-0.2l-0.1,0l-0.1,0l-0.6-0.2
		c-1.6-0.4-2.4-0.6-3.1-0.6c-0.9,0-1.5,0.3-2,0.9c-0.3,0.4-0.5,0.9-0.7,1.6c-0.1,0.4-0.1,0.8-0.1,1.6l0,0.2l0,1.5l0,0.6l0,0.5
		c-0.1,0.7-0.1,1.3-0.3,1.9L31,27.1L30.1,31c0.2,1.7,0.6,3.5,1.2,5.1c0.8,2.4,2.1,4.6,3.5,6.5c0.3,0.4,0.6,0.8,1,1.2l0.3,0.4
		l0.4,0.4c1,1.1,2.2,2,3.3,2.7c1.7,1,3.5,1.6,5.2,1.6c1.7,0,3.5-0.5,5.2-1.6c1.8-1.1,3.6-2.7,5-4.6c1.5-1.9,2.7-4.2,3.5-6.5
		c0.5-1.5,0.9-3.1,1.1-4.6l0.1-0.6L59,27.1c-0.2-0.6-0.3-1.3-0.3-1.9l-0.1-0.7l0-0.4l0-0.5l0-1.3l0-0.7c0-0.6-0.1-1-0.1-1.4
		c-0.1-0.6-0.3-1-0.5-1.4l-0.1-0.2l-0.1-0.1C57.2,18.1,56.6,17.9,55.7,17.9z M45,7.6c-6.8,0-10.8,1.4-12.9,4.1
		c-1.1,1.5-1.7,3.2-2,5.7c0-0.1,0.1-0.1,0.2-0.2c1-1.3,2.3-1.9,4-1.9c0.9,0,1.7,0.1,3.1,0.5l0.3,0.1l0.9,0.2l0.1,0l1.1,0.3
		c2.3,0.6,3.6,0.8,5.2,0.8c1.5,0,2.7-0.2,4.7-0.7l0.8-0.2l1.4-0.4l0.6-0.2c1.4-0.3,2.2-0.5,3.1-0.5c1.6,0,2.9,0.5,3.8,1.6l0.2,0.2
		l0.1,0.1l0.1,0.1l0.1,0.1l0-0.4c-0.3-2.3-0.9-3.9-2-5.3C55.8,9,51.8,7.6,45,7.6z M41.9,63.1L41.9,63.1l1.5-2.8l-8.9-5.2l-1.1,0.7
		l8.1,7.9L41.9,63.1z"/>
</g>
</svg>
