<?xml version="1.0" encoding="utf-8"?>
<!-- Generator: Adobe Illustrator 22.0.0, SVG Export Plug-In . SVG Version: 6.00 Build 0)  -->
<svg version="1.1" id="Layer_1" xmlns="http://www.w3.org/2000/svg" xmlns:xlink="http://www.w3.org/1999/xlink" x="0px" y="0px"
	 viewBox="0 0 6553.6 6750.7" style="enable-background:new 0 0 6553.6 6750.7;" xml:space="preserve">
<style type="text/css">
	.st0{stroke:#000000;stroke-width:60;stroke-miterlimit:10;}
	.st1{font-family:'HelveticaNeue-Bold';}
	.st2{font-size:0.5461px;}
</style>
<g>
	<path class="st0" d="M523.3,3066.8c-151.1-720.6-82.1-1316.9,120-1783c175.3-404.1,450.6-710.1,769.5-914.1
		C1732,165.5,2095,63.6,2445.3,67.5c351.1,4,689.7,114.1,959.3,334.1c140.2,114.4,277.8,282.8,389.6,466.8
		c112.3,184.8,199.1,385.8,237.1,564c12.5,58.3,23.8,120.3,35,181.5c55.8,304.7,107.9,589.3,367.1,645.5
		c23.6,5.1,38.6,28.3,33.4,51.9c-5.1,23.6-28.3,38.6-51.9,33.4c-315.9-68.6-373.1-380.8-434.3-715.2
		c-10.7-58.4-21.5-117.6-34.6-179.1c-36-169-118.9-360.4-226.2-537.1c-106.8-175.7-237.6-336.2-370.2-444.3
		c-254.1-207.2-573.4-310.9-905.1-314.7c-334-3.8-680.3,93.5-985,288.5C1154.5,638,891.2,930.9,723.2,1318
		c-196.7,453.6-262.6,1036.9-111.7,1744.6c29.6,6,58.2,19.6,84.7,40.4c11.8,9.3,23,20,33.8,32.2c11-66.7,29.1-133,44.3-189.3
		c7.9-28.9-14.1,51.8,5-18.9c200.4-740.6,670-1031.5,1132.5-1219.4c18.9-8.1,37.8-15.5,56.5-22.5c85.4-33.3,170.2-63.7,252.5-93.1
		c420.9-150.4,776.1-277.3,804.7-688.8c1.6-24,22.4-42.3,46.4-40.6c24,1.6,42.3,22.4,40.6,46.4c-2.3,33.4-6.4,65.1-12.1,95.2
		c543.1,106.7,627.7,555.2,704.4,961.9c58,307.5,111.2,589.1,368.7,645c23.6,5.1,38.6,28.3,33.4,51.9c-5.1,23.6-28.3,38.6-51.9,33.4
		c-314-68.2-372.4-377.1-436-714.3c-71.7-379.9-150.8-798.9-640.5-893.1c-36,109.9-97.8,196.4-178.3,268
		c103.1,31.3,190.3,74.6,264.9,127c95,66.8,169.4,148.4,230,239.5c100.7,151.4,124.3,307.5,148.2,465.6
		c36.2,239.6,73.2,484.3,408.2,706.6c20.1,13.3,25.6,40.3,12.3,60.4c-13.3,20.1-40.3,25.6-60.4,12.3
		c-367.5-243.8-407.3-507.8-446.4-766.3c-22.4-148.5-44.6-295.2-134.6-430.5c-54.9-82.6-122-156.2-207.5-216.4
		c-81.5-57.2-180-102.5-300.9-131.6c-109.6,74.4-242.7,131.8-388.3,186.7c15.6,0.9,30,2.3,43.3,3.9
		c590.5,75.6,695.3,460.5,805.2,863.4c80.1,293.6,162.7,597.4,454.3,778.7c20.4,12.7,26.8,39.6,14,60.1
		c-12.7,20.4-39.6,26.8-60.1,14c-157.8-98.2-259.1-225.9-331.3-367.2c-1.7-1.6-3.3-3.5-4.8-5.5c-193.7-261.2-358-192.6-522.4-123.9
		c-94.9,39.6-189.9,79.3-294.7,70.6c-9.1-0.8-17.1-4.2-23.7-9.5c-19.8-14.4-33-31-40.1-46.5c-5.6-12.1-8-24.2-7.3-35.5
		c0.9-16.5,7.6-30.7,19.6-41.1c8.4-7.2,18.6-11.9,30.5-13.4c10.2-1.3,21-2.7,34.2-4.6c8.7-1.2,15.5-2.2,18-2.7
		c69.4-14.9,131.9-35.7,191.5-55.6c91-30.4,175.5-58.4,267.6-62.4c70.5-2.9,140.5,9.5,209.4,52.9c6,3.8,12,7.8,17.9,12
		c-20.4-65.5-38.6-131.8-56.5-197.7c-102-374.2-199.4-731.7-732.1-799.9c-59.3-7.6-149.1-7.3-254.8,11
		c-60.2,10.4-125.2,26.7-192.1,50.5c-464.2,180.4-948.5,452-1147.5,1187.3c-15.7,58.2,6.1-22.7-5.4,19.2c-27,99-63.2,232-47.7,325.8
		c2.8,10.2,5.4,20.8,7.8,31.6c0.5,1.9,1,3.8,1.2,5.7c4.3,20.9,7.8,42.9,10.3,66.1c2.5,23.9-14.9,45.4-38.8,48s-45.4-14.9-48-38.8
		c-2.2-20.3-5.1-39.4-8.8-57.5c-3.8-11.9-6.8-24.2-9-37c-3.7-13.1-7.9-25.4-12.3-37.1c-18.6-47.8-43.1-82.8-70.6-104.4
		c-24.1-19-50.6-27.4-76.9-24.6c-8.8,1-17.8,3.2-26.7,6.6c-73.5,28.5-111,100.8-126.8,186.9c-25.6,138.6,3.7,310.5,33,412.2
		c45.7,158.9,124,296.4,213.3,395.5c84.3,93.4,177.1,151.7,259.1,159.8c-41.5-113.9-78.3-234.4-110.1-361
		c-5.9-23.4,8.4-47.1,31.8-52.9c23.4-5.9,47.1,8.4,52.9,31.8c37.9,150.8,83,292.6,134.6,424.3c52.6,134.5,111.6,258.3,176.1,370.4
		c12,20.9,4.8,47.4-16.1,59.4c-20.9,12-47.4,4.8-59.4-16.1c-65.2-113.5-124.7-237.6-177.5-370.9c-5.1,2-10.7,3.1-16.5,3.1
		c-110.9-1.4-233.3-72-339.4-189.4c-98-108.6-183.4-258.1-232.9-429.9c-31.7-110.1-63.1-297.5-34.7-451.9
		c21-113.9,74.1-210.9,181.1-252.4c5.4-2.1,10.7-3.9,16.2-5.5V3066.8z M1185.9,5019.9c96,0,183-38.9,246-101.9
		c62.9-62.9,101.9-149.9,101.9-246h87.4c0,96,38.9,183,101.9,246c62.9,62.9,149.9,101.9,246,101.9v87.4c-96,0-183,38.9-246,101.9
		c-62.9,62.9-101.9,149.9-101.9,246h-87.4c0-96-38.9-183-101.9-246c-62.9-62.9-149.9-101.9-246-101.9V5019.9z M1493.6,4979.9
		c-34.1,34.1-73.7,62.5-117.4,83.8c43.8,21.3,83.4,49.7,117.4,83.8c34.1,34.1,62.5,73.7,83.8,117.4c21.3-43.8,49.7-83.4,83.8-117.4
		c34.1-34.1,73.7-62.5,117.4-83.8c-43.8-21.3-83.4-49.7-117.4-83.8c-34.1-34.1-62.5-73.7-83.8-117.4
		C1556,4906.2,1527.6,4945.9,1493.6,4979.9z M6048.8,253.3c67.5,0,128.7,27.4,172.9,71.7s71.7,105.4,71.7,172.9
		s-27.4,128.7-71.7,172.9c-44.2,44.2-105.4,71.7-172.9,71.7s-128.7-27.4-172.9-71.7c-44.2-44.2-71.7-105.4-71.7-172.9
		s27.4-128.7,71.7-172.9S5981.3,253.3,6048.8,253.3z M6159.8,386.7c-28.4-28.4-67.7-46-111.1-46c-43.4,0-82.7,17.6-111.1,46
		c-28.4,28.4-46,67.7-46,111.1s17.6,82.7,46,111.1c28.4,28.4,67.7,46,111.1,46c43.4,0,82.7-17.6,111.1-46
		c28.4-28.4,46-67.7,46-111.1S6188.2,415.1,6159.8,386.7z M5461.7,2036.2c110.8,0,211-44.9,283.7-117.4
		c72.5-72.5,117.4-172.9,117.4-283.7h87.4c0,110.8,44.9,211,117.4,283.7c72.5,72.5,172.9,117.4,283.7,117.4v87.4
		c-110.8,0-211,44.9-283.7,117.4c-72.5,72.5-117.4,172.9-117.4,283.7h-87.4c0-110.8-44.9-211-117.4-283.7
		c-72.5-72.5-172.9-117.4-283.7-117.4V2036.2z M5807,1980.5c-41.2,41.2-89.6,74.9-143.2,99.4c53.6,24.5,102,58.2,143.2,99.4
		c41.2,41.2,74.9,89.6,99.4,143.2c24.5-53.6,58.2-102,99.4-143.2c41.2-41.2,89.6-74.9,143.2-99.4c-53.6-24.5-102-58.2-143.2-99.4
		c-41.2-41.2-74.9-89.6-99.4-143.2C5882,1890.9,5848.2,1939.3,5807,1980.5z M4387.9,1034.2c102.5,0,195.2-41.5,262.4-108.7
		c67.2-67.2,108.7-159.9,108.7-262.4h87.4c0,102.5,41.5,195.2,108.7,262.4s159.9,108.7,262.4,108.7v87.4
		c-102.5,0-195.2,41.5-262.4,108.7c-67.2,67.2-108.7,159.9-108.7,262.4h-87.4c0-102.5-41.5-195.2-108.7-262.4
		c-67.2-67.2-159.9-108.7-262.4-108.7V1034.2z M4712,987.3c-37.1,37.1-80.6,67.9-128.6,90.5c48.1,22.7,91.5,53.4,128.6,90.5
		c37.1,37.1,67.9,80.6,90.5,128.6c22.7-48.1,53.4-91.5,90.5-128.6c37.1-37.1,80.6-67.9,128.6-90.5c-48.1-22.7-91.5-53.4-128.6-90.5
		c-37.1-37.1-67.9-80.6-90.5-128.6C4779.9,906.8,4749.2,950.3,4712,987.3z M202.5,5877c123,0,234.3-49.8,314.8-130.4
		c80.6-80.6,130.4-191.9,130.4-314.8h87.4c0,123,49.8,234.3,130.4,314.8c80.6,80.6,191.9,130.4,314.8,130.4v87.4
		c-123,0-234.3,49.8-314.8,130.4c-80.6,80.6-130.4,191.9-130.4,314.8h-87.4c0-123-49.8-234.3-130.4-314.8
		c-80.6-80.6-191.9-130.4-314.8-130.4V5877z M579.1,5808.5c-47.1,47.1-103,85.4-165,112.3c62,26.9,118,65.2,165,112.3
		c47.1,47.1,85.4,103,112.3,165c26.9-62,65.2-118,112.3-165c47.1-47.1,103-85.4,165-112.3c-62-26.9-118-65.2-165-112.3
		c-47.1-47.1-85.4-103-112.3-165C664.5,5705.5,626.2,5761.4,579.1,5808.5z M4221.1,3989.1c-126.2-151.6-217.3-302.9-264.9-437.8
		c-51.7-146.1-52.9-275.3,6-369l-0.4-0.3c58.7-86,124.6-162.6,179.7-226.5c22.4-26,42.9-49.9,59.4-70.2
		c98.7-121.6,294.8-140.7,531.9-73.1c224.5,63.9,489.8,205.9,743.1,410.9c0.8,0.5,5,3.9,5.6,4.6c252.6,205.6,446.2,436,555,642.6
		c114.9,218.2,136.6,414.1,37.9,535.6c-16.1,19.9-35.3,45-56.4,72.4c-51.1,66.8-112.6,147.1-184.9,222.5l-0.3-0.3
		c-39.6,38.2-90.9,63.7-151.6,77.2c-70.8,15.7-154.2,14.9-246.1-1.3l15.1-86.1c81.3,14.3,153.2,15.4,212.2,2.3
		c53-11.8,95.4-35,124.3-70.6c74.5-91.8,50.9-253.3-47.5-440.1c-104.1-197.7-290.9-419.3-535.5-617.9
		c-244.6-198.5-499.8-335.7-714.9-396.8c-203.2-57.9-366-47.7-440.5,44.1c-56.3,69.4-56.1,179.7-9.8,310.9
		c50.2,142.1,153.9,305.7,299.4,468.6c235.9,9.6,448.4,54.8,607.8,123.1c111.7,47.8,198.7,107.7,251.8,175.7
		c40.2,38,60.7,113.5,68.3,196.5c6.4,70.7,4.2,148.8-3.1,212.1c55.2,40.6,99.5,86,131.4,135.2c33.2,51.3,52.4,106.8,55.8,165.8
		c0.3,6.8,0.5,12.2,0.5,16.4c0,6.1-0.2,12.1-0.5,18l-0.3,919.7h0.2v0.2c0,151.8-139.9,287.7-366.1,383.6
		c-214.6,91-510.4,148.1-836.7,148.4h-7c-326.2-0.4-621.9-57.6-836.7-148.4c-226.3-95.9-366.1-231.8-366.1-383.6v-0.2h0.2
		l-0.3-919.7c-0.3-6-0.5-12-0.5-18c0-4.3,0.2-9.7,0.5-16.4c3.3-58.9,22.6-114.5,55.8-165.8c31.8-49.3,76.2-94.6,131.4-135.2
		c-7.2-63.4-9.5-141.4-3.1-212.1c7.6-83.1,28.2-158.5,68.3-196.5c53.1-68,140-127.9,251.8-175.7c175.6-75.1,415.5-122.4,680-125
		L4221.1,3989.1z M4173.1,3052.2c95.2-16.5,211.4-5.4,339.5,31.1c225.3,64.1,491.7,207,745.9,413.2
		c254,206.1,448.6,437.5,557.7,644.9c62,117.9,96.9,229.2,100.4,325.8c11.1-14.4,21.8-28.4,32.1-41.8c20.6-26.9,39.4-51.7,58-74.5
		c74.5-91.8,50.9-253.3-47.5-440.1c-103.8-197-289.6-417.7-532.9-615.7l-3.1-2l-2.3-2.3c-243.8-197.4-498-333.7-712.2-394.7
		c-203.2-57.9-366-47.7-440.5,44.1c-18.1,22.4-38.6,46.1-60.7,71.9c-11,12.9-22.5,26.2-34.3,40.1H4173.1z M4243.3,5455.8
		c59.3,0,116.4-1.5,171.2-4.7c271.1-15.3,512.9-66.6,686.4-146.7c158.2-73,256.6-168.4,261.8-279.3v-21
		c-2.4-43.3-17-84.5-42.2-123.4c-19.3-29.9-45.1-58.5-76.5-85.5c-18.7,56-58.4,107.9-115.7,154.3c-61.3,49.7-143.1,93.5-240.1,129
		c-22.6,8.3-47.7-3.3-56-26c-8.3-22.6,3.3-47.7,26-56c88.4-32.3,161.7-71.2,215.2-114.7c48.5-39.3,80.2-81.7,91.1-125.4
		c8-32,14.3-79.8,16.7-132.3c-53.7,60.2-134.6,113.3-235.6,156.5c-180.6,77.2-428.9,125.1-702.3,125.1s-521.8-47.8-702.3-125.1
		c-101.1-43.3-181.9-96.3-235.6-156.5c2.5,52.5,8.7,100.3,16.7,132.3c22.6,90.1,129.8,172.6,289.8,234
		c166.6,64,387.9,102.9,631.4,102.9c24.1,0,43.7,19.6,43.7,43.7s-19.6,43.7-43.7,43.7c-253.7,0-486.1-41.3-662.6-109
		c-177.5-68.2-300.9-164.9-338.3-276.7c-31.5,27-57.1,55.6-76.6,85.5c-25.1,38.9-39.6,80.3-42.2,123.4v21
		c5.2,110.9,103.8,206.3,261.8,279.3c173.5,80.1,415.3,131.4,686.4,146.7c54.7,3.1,111.8,4.7,171.2,4.7L4243.3,5455.8z M5362.7,5228
		c-53.8,59.7-130.5,112-225.2,155.6c-183.2,84.5-436.3,138.6-718.2,154.6c-58.8,3.3-117.5,5-176,5c-58.4,0-117.2-1.6-176-5
		c-281.9-15.8-535-69.9-718.2-154.6c-94.7-43.7-171.5-95.9-225.2-155.6l0.2,725.5h0.2v0.2c0,113.6,119.4,221.6,312.6,303.4
		c204.8,86.7,488.6,141.2,802.8,141.7h7c314.4-0.4,598-54.8,802.8-141.7c193.1-81.8,312.6-189.8,312.6-303.4v-0.2h0.2L5362.7,5228z
		 M5134.5,4350.3c-2.5-2.6-4.6-5.5-6.3-8.4c-42.9-55.1-118.2-105.5-216.6-147.7c-170.2-72.9-406.4-117.9-668.2-117.9
		s-498,45-668.2,117.9c-98.5,42.2-173.7,92.6-216.6,147.7c-1.7,3.1-3.8,5.9-6.3,8.4c-22.3,31.2-34.3,63.8-34.3,97.1
		c0,95.4,98.3,185.1,257.2,253.2c170.2,72.9,406.4,117.9,668.2,117.9s498-45,668.2-117.9c158.9-68,257.2-157.7,257.2-253.2
		C5168.8,4414.1,5156.8,4381.5,5134.5,4350.3z M1973,3288.1c16.9-17,44.6-17.1,61.6-0.2c17,16.9,17.1,44.6,0.2,61.6
		c-9.6,9.6-18.8,18.5-27.6,26.4c-117.5,106.1-254.8,155.5-387.3,154.6c-133.5-1-261.5-53.2-359.2-150.1
		c-7.4-7.4-14.3-14.5-20.5-21.4c-16.2-17.9-14.6-45.5,3.3-61.6c17.9-16.2,45.5-14.6,61.6,3.3c6,6.7,11.8,12.7,17.1,18
		c81.4,80.6,187.5,124,298.2,124.8c111.5,0.9,228.1-41.5,328.7-132.4c8.6-7.9,16.7-15.5,24.1-23H1973z M2021.7,2895.2
		c-6.6,5.2-14.7,8.7-23.8,9.5c-104.7,8.7-199.7-30.9-294.7-70.6c-164.4-68.6-328.8-137.3-522.4,123.9c-14.3,19.3-41.6,23.4-60.9,9.1
		c-18.1-13.4-22.8-38.2-11.5-57.2c60.3-112.1,124.1-181.9,190.1-223.4c68.9-43.4,138.8-55.8,209.4-52.9
		c92.2,3.9,176.6,32,267.6,62.4c59.5,19.9,122.1,40.6,191.5,55.6c2.5,0.5,9.3,1.5,18,2.7c13.2,1.9,24,3.3,34.2,4.6
		c11.8,1.5,22.1,6.2,30.5,13.4c12,10.4,18.7,24.6,19.7,41.1c0.7,11.3-1.7,23.4-7.3,35.5c-7.2,15.4-20.3,32-40.1,46.5L2021.7,2895.2z
		 M2492.3,3349.3c-16.8-17.1-16.6-44.8,0.5-61.6c17.1-16.8,44.8-16.6,61.6,0.5c9.2,9.3,18.9,18.7,29.3,27.9
		c98.1,87.4,210.7,128.1,318.6,127.2c107.2-0.9,210.2-42.8,289.8-120.7c6.7-6.6,13.7-13.9,20.9-22c16.1-18,43.6-19.7,61.6-3.6
		c18,16.1,19.7,43.6,3.6,61.6c-7.6,8.5-15.9,17.3-25,26.1c-96,94-220.5,144.5-350.2,145.6c-128.9,1.1-262.5-46.6-377.4-149.1
		c-10.8-9.7-22-20.3-33.4-32H2492.3z M1926,5499.8c-22.8-7.8-35.1-32.4-27.3-55.3c7.8-22.8,32.4-35.1,55.3-27.3
		c124.5,42.4,253.8,57,385.2,41.1c127.7-15.5,257.7-59.9,387.5-135.7c20.9-12,47.5-4.9,59.5,15.8c12,20.9,4.9,47.5-15.8,59.5
		c-140.4,81.9-281.6,130-421,146.9C2205,5562.5,2062.9,5546.4,1926,5499.8z"/>
</g>
<text transform="matrix(1 0 0 1 0 6555.2383)" class="st1 st2">Created by Olena Panasovska</text>
<text transform="matrix(1 0 0 1 0 6555.7852)" class="st1 st2">from the Noun Project</text>
</svg>
