<?xml version="1.0" encoding="utf-8"?>
<!-- Generator: Adobe Illustrator 22.0.0, SVG Export Plug-In . SVG Version: 6.00 Build 0)  -->
<svg version="1.1" id="Layer_1" xmlns="http://www.w3.org/2000/svg" xmlns:xlink="http://www.w3.org/1999/xlink" x="0px" y="0px"
	 viewBox="0 0 6553.6 6295.4" style="enable-background:new 0 0 6553.6 6295.4;" xml:space="preserve">
<style type="text/css">
	.st0{stroke:#000000;stroke-width:20;stroke-miterlimit:10;}
	.st1{enable-background:new    ;}
</style>
<g>
	<path class="st0" d="M2790.5,1137.7c-892.6-647.5-1743.9,620-1300.9,1229.5c30.1,41.3,4.6,74.7-28.2,97.6
		c-764.1,540-752.4,1310.1,99,1743.3c55.7,28.8,40,111.4-21,118.6c-314.6,60.9-261.5,414.2,38.7,469.2c38,6.6,60.3,45.2,48.5,81.3
		c-420.1,1253,941.1,1215.7,1178.3-132.4c-672.4-292.9-846.1-1127.9-771.4-1789.8c3.3-25.6,21-45.9,44.6-53.1
		c435.2-172.4,530.8-517.7,631.1-942.4c13.8-59,94.4-66.2,118.6-11.8c25.6,47.2,289.7,518.4,592.4,568.9
		c359.8,59.6,884.1,159.3,935.9,601c78.6,666.5-103.5,1248.5-718.3,1582c-50.5,488.9,57,778.6,214.3,914.9
		c266.1,229.4,612.1,4.6,658.6-323.7c5.2-36.7,32.8-51.8,66.2-55.1c696.6-60.3,606.9-589.2,314.6-1072.8
		c-19.7-32.8-5.9-75.4,28.8-89.8c909-403,1020.4-1234,32.1-1605c-62.3-22.9-38-78.6-17-118.6
		C5694.4,924.1,3884.3,308.7,2886.2,1148.8C2850.2,1179.6,2820,1159.3,2790.5,1137.7z M2844.3,1022.4
		C3949.2,144.2,5835.3,867.7,5062.7,2377c1003.4,418.1,903.1,1333.7-28.2,1781.9c303.4,537.4,324.4,1114.1-408.3,1198.7
		c-85.2,403-530.8,632.4-855.9,351.3c-187.4-161.2-315.9-494.1-255.6-1043.3c3.3-26.2,7.9-47.2,35.4-61.6
		c587.9-304.1,755.6-843.4,681.6-1471.9c-42.6-362.4-541.3-443.7-831.7-492.2c-264.8-43.9-492.2-334.9-606.2-507.9
		c-119.9,422.1-213.6,685.5-639,873.6c-59.6,610.8,100.9,1392,737.9,1640.4c29.5,8.5,49.2,38,44.6,69.5
		C2696.8,6285.6,1078.1,6269.8,1487,4902.1c-307.4-100.3-402.4-488.9-107.5-650.8c-821.8-495.5-771.4-1314-26.2-1863.2
		C906.4,1643,1877,346,2844.3,1022.4z"/>
</g>
<text transform="matrix(1 0 0 1 0 6563.4307)" style="font-family:'HelveticaNeue-Bold'; font-size:3.2768px;">Created by BETIANITI</text>
<text transform="matrix(1 0 0 1 0 6566.707)" style="font-family:'HelveticaNeue-Bold'; font-size:3.2768px;">from the Noun Project</text>
</svg>
